<svg width="1105" height="292" viewBox="0 0 1105 292" fill="none" xmlns="http://www.w3.org/2000/svg">
<path d="M221.24 96.4098C221.239 96.4083 221.237 96.407 221.235 96.4061C219.455 95.5392 218.689 97.1979 217.647 98.0408C217.295 98.3175 216.992 98.679 216.694 98.9958C214.087 101.789 211.049 103.619 207.084 103.396C206.332 103.355 205.593 103.35 204.869 103.382C198.785 103.65 188.768 100.971 183.21 98.4826V98.4826C180.742 97.3893 178.251 96.296 176.532 93.9174C175.325 92.2305 174.999 90.3473 174.389 88.4909C174.01 87.3708 173.623 86.2194 172.34 86.0275C170.945 85.8044 170.397 86.9825 169.854 87.9643C167.657 91.9762 166.815 96.4075 166.891 100.892C167.083 110.969 171.333 118.993 179.762 124.709C180.724 125.361 180.969 126.026 180.666 126.981C180.091 128.944 179.41 130.854 178.799 132.822C178.421 134.081 177.846 134.357 176.505 133.804C171.876 131.867 167.876 129.002 164.347 125.526C158.351 119.716 152.929 113.294 146.167 108.269V108.269C143.045 105.957 138.959 103.816 138.579 99.9503C138.156 95.658 142.732 92.5415 144.059 92.0654C145.953 91.3871 144.714 89.0353 138.611 89.0621C132.512 89.0889 126.921 91.1372 119.806 93.8638V93.8638C117.719 94.6946 115.413 94.5768 113.187 94.2741C107.768 93.5369 102.174 93.4598 96.3685 94.1137C83.1728 95.5953 72.6323 101.852 64.8806 112.535C55.5741 125.361 53.3822 139.945 56.0641 155.171C58.8841 171.196 67.0412 184.481 79.5865 194.861C92.5862 205.616 107.564 210.887 124.649 209.878C132.12 209.451 140.204 208.607 149.01 204.038C155.93 200.449 164.306 198.938 172.072 199.61V199.61C176.478 200.025 180.72 199.387 184.007 198.708C189.153 197.615 188.796 192.84 186.939 191.956V191.956C178.94 188.223 177.408 180.233 182.519 173.036C187.937 165.408 193.181 154.659 195.893 136.294C196.245 133.858 195.942 132.336 195.893 130.359C195.867 129.167 196.134 128.699 197.502 128.561C201.279 128.132 204.95 127.092 208.318 125.227C218.093 119.872 222.031 111.085 222.962 100.535C223.1 98.9298 222.935 97.2573 221.245 96.4134C221.243 96.4125 221.241 96.4112 221.24 96.4098V96.4098ZM136.063 191.303C136.063 191.303 136.062 191.304 136.061 191.303C121.436 179.778 114.349 175.985 111.422 176.15C108.687 176.301 109.177 179.443 109.778 181.491C110.406 183.513 111.23 184.91 112.384 186.681C113.177 187.86 113.725 189.613 111.591 190.917C106.882 193.853 98.694 189.935 98.3064 189.738C88.7816 184.12 80.8161 176.69 75.1983 166.528C72.132 160.991 69.7922 155.227 68.2451 149.236C67.4237 146.056 67.1356 138.205 70.3691 137.624V137.624V137.624C77.7427 136.263 80.802 135.697 84.472 142.235C94.2953 159.737 109.264 140.99 118.425 150.102C124.506 156.148 129.104 163.36 133.844 170.402C138.878 177.89 144.304 185.017 151.205 190.858V190.858C153.178 192.52 152.177 196.011 149.603 195.851C145.006 195.565 139.98 194.41 136.064 191.302C136.064 191.301 136.063 191.302 136.063 191.303V191.303ZM143.07 146.09C143.07 144.885 144.028 143.93 145.24 143.93C145.507 143.93 145.757 143.983 145.979 144.068C146.278 144.18 146.554 144.345 146.768 144.595C147.156 144.97 147.374 145.523 147.374 146.09C147.374 147.295 146.416 148.25 145.213 148.25C144.01 148.25 143.07 147.295 143.07 146.09ZM164.835 157.302C164.836 157.301 164.835 157.301 164.835 157.301C163.441 157.867 162.048 158.366 160.708 158.42C158.627 158.518 156.355 157.67 155.117 156.635C153.201 155.028 151.838 154.131 151.254 151.306C151.014 150.102 151.152 148.25 151.366 147.183C151.864 144.885 151.312 143.417 149.699 142.078C148.381 140.984 146.714 140.694 144.879 140.694C144.193 140.694 143.565 140.391 143.097 140.141C142.331 139.753 141.703 138.798 142.304 137.624C142.496 137.249 143.431 136.321 143.649 136.156C146.135 134.732 149.009 135.201 151.668 136.267C154.137 137.276 155.994 139.132 158.672 141.748C161.416 144.916 161.906 145.804 163.465 148.169C164.695 150.039 165.822 151.949 166.588 154.136C167.051 155.492 166.451 156.611 164.836 157.303C164.835 157.303 164.835 157.302 164.835 157.302V157.302Z" fill="#007AFF"/>
<path d="M340.344 118.349C339.753 113.105 337.315 109.043 333.031 106.162C328.747 103.244 323.355 101.786 316.855 101.786C312.202 101.786 308.176 102.524 304.778 104.001C301.381 105.442 298.74 107.436 296.857 109.984C295.01 112.496 294.087 115.358 294.087 118.571C294.087 121.267 294.714 123.594 295.97 125.551C297.263 127.509 298.943 129.152 301.011 130.482C303.116 131.774 305.369 132.864 307.77 133.75C310.17 134.599 312.479 135.301 314.695 135.855L325.774 138.736C329.393 139.622 333.105 140.822 336.909 142.337C340.713 143.851 344.24 145.845 347.49 148.32C350.74 150.794 353.362 153.859 355.357 157.516C357.388 161.172 358.403 165.548 358.403 170.645C358.403 177.071 356.741 182.777 353.418 187.763C350.131 192.749 345.348 196.682 339.07 199.562C332.828 202.443 325.276 203.884 316.412 203.884C307.918 203.884 300.568 202.536 294.364 199.839C288.159 197.143 283.303 193.321 279.794 188.372C276.286 183.386 274.347 177.477 273.977 170.645H291.151C291.483 174.744 292.813 178.161 295.139 180.893C297.503 183.589 300.513 185.602 304.169 186.932C307.862 188.224 311.906 188.871 316.301 188.871C321.139 188.871 325.442 188.114 329.209 186.599C333.013 185.048 336.004 182.906 338.183 180.173C340.362 177.403 341.452 174.172 341.452 170.479C341.452 167.118 340.491 164.366 338.571 162.224C336.688 160.082 334.121 158.31 330.871 156.906C327.658 155.503 324.02 154.266 319.957 153.195L306.551 149.538C297.466 147.064 290.264 143.426 284.946 138.625C279.665 133.824 277.024 127.472 277.024 119.568C277.024 113.031 278.797 107.325 282.342 102.45C285.888 97.5753 290.689 93.7898 296.746 91.0938C302.803 88.3608 309.635 86.9943 317.243 86.9943C324.925 86.9943 331.702 88.3423 337.574 91.0384C343.483 93.7344 348.136 97.446 351.534 102.173C354.932 106.864 356.705 112.256 356.852 118.349H340.344ZM414.203 203.717C405.819 203.717 398.599 201.926 392.542 198.344C386.522 194.724 381.869 189.646 378.582 183.109C375.332 176.536 373.707 168.835 373.707 160.009C373.707 151.293 375.332 143.611 378.582 136.963C381.869 130.315 386.449 125.126 392.321 121.396C398.23 117.666 405.136 115.801 413.039 115.801C417.841 115.801 422.494 116.595 427 118.183C431.505 119.771 435.549 122.264 439.132 125.662C442.714 129.06 445.539 133.473 447.608 138.902C449.676 144.294 450.71 150.849 450.71 158.568V164.44H383.069V152.031H434.478C434.478 147.673 433.592 143.814 431.819 140.453C430.047 137.055 427.554 134.378 424.341 132.42C421.164 130.463 417.434 129.484 413.15 129.484C408.497 129.484 404.434 130.629 400.963 132.919C397.528 135.172 394.869 138.126 392.985 141.783C391.139 145.402 390.216 149.335 390.216 153.582V163.277C390.216 168.964 391.213 173.803 393.207 177.791C395.238 181.78 398.064 184.827 401.683 186.932C405.302 189 409.531 190.034 414.369 190.034C417.508 190.034 420.37 189.591 422.956 188.705C425.541 187.781 427.775 186.415 429.659 184.605C431.542 182.795 432.983 180.561 433.98 177.902L449.657 180.727C448.402 185.344 446.149 189.388 442.899 192.859C439.686 196.294 435.642 198.972 430.767 200.892C425.929 202.776 420.407 203.717 414.203 203.717ZM505.761 203.717C497.378 203.717 490.158 201.926 484.101 198.344C478.081 194.724 473.428 189.646 470.141 183.109C466.891 176.536 465.266 168.835 465.266 160.009C465.266 151.293 466.891 143.611 470.141 136.963C473.428 130.315 478.007 125.126 483.879 121.396C489.788 117.666 496.695 115.801 504.598 115.801C509.399 115.801 514.053 116.595 518.558 118.183C523.064 119.771 527.108 122.264 530.69 125.662C534.273 129.06 537.098 133.473 539.166 138.902C541.234 144.294 542.268 150.849 542.268 158.568V164.44H474.628V152.031H526.037C526.037 147.673 525.151 143.814 523.378 140.453C521.605 137.055 519.112 134.378 515.899 132.42C512.723 130.463 508.993 129.484 504.709 129.484C500.055 129.484 495.993 130.629 492.521 132.919C489.087 135.172 486.428 138.126 484.544 141.783C482.697 145.402 481.774 149.335 481.774 153.582V163.277C481.774 168.964 482.771 173.803 484.766 177.791C486.797 181.78 489.622 184.827 493.241 186.932C496.861 189 501.089 190.034 505.928 190.034C509.067 190.034 511.929 189.591 514.514 188.705C517.099 187.781 519.334 186.415 521.217 184.605C523.101 182.795 524.541 180.561 525.538 177.902L541.216 180.727C539.96 185.344 537.707 189.388 534.457 192.859C531.244 196.294 527.2 198.972 522.325 200.892C517.487 202.776 511.966 203.717 505.761 203.717ZM575.881 173.138L575.77 152.918H578.651L612.554 116.909H632.387L593.719 157.903H591.115L575.881 173.138ZM560.647 202V88.5455H577.211V202H560.647ZM614.382 202L583.914 161.56L595.326 149.982L634.713 202H614.382Z" fill="black"/>
<path d="M658.728 88.5455L690.305 180.949H691.579L723.156 88.5455H741.659L700.831 202H681.054L640.225 88.5455H658.728ZM784.024 203.717C776.047 203.717 769.085 201.889 763.139 198.233C757.193 194.577 752.577 189.462 749.29 182.888C746.003 176.314 744.359 168.632 744.359 159.842C744.359 151.016 746.003 143.297 749.29 136.686C752.577 130.075 757.193 124.942 763.139 121.286C769.085 117.629 776.047 115.801 784.024 115.801C792.001 115.801 798.963 117.629 804.909 121.286C810.855 124.942 815.472 130.075 818.759 136.686C822.045 143.297 823.689 151.016 823.689 159.842C823.689 168.632 822.045 176.314 818.759 182.888C815.472 189.462 810.855 194.577 804.909 198.233C798.963 201.889 792.001 203.717 784.024 203.717ZM784.08 189.812C789.25 189.812 793.534 188.446 796.932 185.713C800.33 182.98 802.841 179.342 804.466 174.8C806.128 170.257 806.959 165.253 806.959 159.787C806.959 154.358 806.128 149.372 804.466 144.83C802.841 140.25 800.33 136.575 796.932 133.805C793.534 131.036 789.25 129.651 784.08 129.651C778.872 129.651 774.551 131.036 771.116 133.805C767.719 136.575 765.189 140.25 763.527 144.83C761.902 149.372 761.089 154.358 761.089 159.787C761.089 165.253 761.902 170.257 763.527 174.8C765.189 179.342 767.719 182.98 771.116 185.713C774.551 188.446 778.872 189.812 784.08 189.812ZM842.178 202V116.909H858.742V202H842.178ZM850.543 103.78C847.662 103.78 845.188 102.82 843.12 100.899C841.088 98.9418 840.073 96.6151 840.073 93.919C840.073 91.1861 841.088 88.8594 843.12 86.9389C845.188 84.9815 847.662 84.0028 850.543 84.0028C853.424 84.0028 855.88 84.9815 857.911 86.9389C859.979 88.8594 861.013 91.1861 861.013 93.919C861.013 96.6151 859.979 98.9418 857.911 100.899C855.88 102.82 853.424 103.78 850.543 103.78ZM916.868 203.717C908.632 203.717 901.541 201.852 895.595 198.122C889.686 194.355 885.143 189.166 881.967 182.555C878.791 175.945 877.203 168.374 877.203 159.842C877.203 151.2 878.828 143.574 882.078 136.963C885.328 130.315 889.908 125.126 895.817 121.396C901.726 117.666 908.688 115.801 916.702 115.801C923.165 115.801 928.926 117.001 933.986 119.402C939.045 121.766 943.126 125.089 946.229 129.374C949.368 133.658 951.233 138.662 951.824 144.386H935.703C934.817 140.398 932.786 136.963 929.609 134.082C926.47 131.202 922.26 129.761 916.979 129.761C912.362 129.761 908.318 130.98 904.847 133.418C901.412 135.818 898.734 139.253 896.814 143.722C894.893 148.153 893.933 153.398 893.933 159.455C893.933 165.659 894.875 171.014 896.759 175.52C898.642 180.026 901.301 183.516 904.736 185.99C908.207 188.464 912.288 189.702 916.979 189.702C920.118 189.702 922.962 189.129 925.51 187.984C928.095 186.803 930.256 185.122 931.991 182.943C933.764 180.764 935.001 178.142 935.703 175.077H951.824C951.233 180.58 949.442 185.491 946.45 189.812C943.459 194.134 939.452 197.531 934.429 200.006C929.443 202.48 923.589 203.717 916.868 203.717ZM1006.21 203.717C997.827 203.717 990.607 201.926 984.55 198.344C978.53 194.724 973.877 189.646 970.59 183.109C967.34 176.536 965.715 168.835 965.715 160.009C965.715 151.293 967.34 143.611 970.59 136.963C973.877 130.315 978.456 125.126 984.328 121.396C990.238 117.666 997.144 115.801 1005.05 115.801C1009.85 115.801 1014.5 116.595 1019.01 118.183C1023.51 119.771 1027.56 122.264 1031.14 125.662C1034.72 129.06 1037.55 133.473 1039.62 138.902C1041.68 144.294 1042.72 150.849 1042.72 158.568V164.44H975.077V152.031H1026.49C1026.49 147.673 1025.6 143.814 1023.83 140.453C1022.05 137.055 1019.56 134.378 1016.35 132.42C1013.17 130.463 1009.44 129.484 1005.16 129.484C1000.5 129.484 996.442 130.629 992.971 132.919C989.536 135.172 986.877 138.126 984.993 141.783C983.147 145.402 982.223 149.335 982.223 153.582V163.277C982.223 168.964 983.221 173.803 985.215 177.791C987.246 181.78 990.071 184.827 993.691 186.932C997.31 189 1001.54 190.034 1006.38 190.034C1009.52 190.034 1012.38 189.591 1014.96 188.705C1017.55 187.781 1019.78 186.415 1021.67 184.605C1023.55 182.795 1024.99 180.561 1025.99 177.902L1041.67 180.727C1040.41 185.344 1038.16 189.388 1034.91 192.859C1031.69 196.294 1027.65 198.972 1022.77 200.892C1017.94 202.776 1012.42 203.717 1006.21 203.717Z" fill="#007AFF"/>
</svg>
